<svg xmlns="http://www.w3.org/2000/svg" xmlns:xlink="http://www.w3.org/1999/xlink" width="500" zoomAndPan="magnify" viewBox="0 0 375 374.999991" height="500" preserveAspectRatio="xMidYMid meet" version="1.2"><defs/><g id="c9b053c551"><path style="fill:none;stroke-width:9;stroke-linecap:butt;stroke-linejoin:miter;stroke:#ff9933;stroke-opacity:1;stroke-miterlimit:4;" d="M 0.00252623 4.496176 L 82.082316 4.496176 " transform="matrix(0,0.425986,-0.425986,0,132.216089,184.080955)"/><path style="fill:none;stroke-width:9;stroke-linecap:butt;stroke-linejoin:miter;stroke:#ffffff;stroke-opacity:1;stroke-miterlimit:4;" d="M 0.00484428 4.501257 L 116.616317 4.499073 " transform="matrix(0.299612,-0.303386,0.303386,0.299612,128.933713,158.223153)"/><path style="fill:none;stroke-width:9;stroke-linecap:butt;stroke-linejoin:miter;stroke:#ffffff;stroke-opacity:1;stroke-miterlimit:4;" d="M -0.00173034 4.500603 L 75.775358 4.498714 " transform="matrix(-0.307948,-0.294921,0.294921,-0.307948,185.812771,149.311221)"/><path style="fill:none;stroke-width:9;stroke-linecap:butt;stroke-linejoin:miter;stroke:#ffffff;stroke-opacity:1;stroke-miterlimit:4;" d="M 0.00488793 4.500914 L 172.50374 4.505275 " transform="matrix(0.307422,-0.294688,0.294688,0.307422,183.24635,146.86776)"/><path style="fill-rule:nonzero;fill:#ffffff;fill-opacity:1;stroke-width:9;stroke-linecap:round;stroke-linejoin:round;stroke:#ffffff;stroke-opacity:1;stroke-miterlimit:4;" d="M 174.754683 -9.004097 L 192.751397 4.498754 L 174.754823 17.997286 Z M 174.754683 -9.004097 " transform="matrix(0.307422,-0.294688,0.294688,0.307422,183.24635,146.86776)"/><path style="fill:none;stroke-width:9;stroke-linecap:butt;stroke-linejoin:miter;stroke:#ffffff;stroke-opacity:1;stroke-miterlimit:4;" d="M -0.00367226 4.499448 L 139.566802 4.499448 " transform="matrix(0,0.426392,-0.426392,0,189.488841,159.571878)"/><path style="fill:none;stroke-width:9;stroke-linecap:butt;stroke-linejoin:miter;stroke:#138808;stroke-opacity:1;stroke-miterlimit:4;" d="M -0.00392554 4.504378 L 200.418245 4.504378 " transform="matrix(0,0.425528,-0.425528,0,245.748768,133.62667)"/><g style="fill:#ffffff;fill-opacity:1;"><g transform="translate(7.509383, 275.515823)"><path style="stroke:none" d="M 4.921875 -3.609375 L 6.984375 -3.609375 L 6.984375 -16.5 L 4.5625 -16.5 L 4.5625 -13.90625 L 0.265625 -13.90625 L 0.265625 -19.984375 L 18.4375 -19.984375 L 18.4375 -13.90625 L 14.125 -13.90625 L 14.125 -16.5 L 11.359375 -16.5 L 11.359375 -3.609375 L 13.46875 -3.609375 L 13.46875 0 L 4.921875 0 Z M 4.921875 -3.609375 "/></g></g><g style="fill:#ffffff;fill-opacity:1;"><g transform="translate(28.67571, 275.515823)"><path style="stroke:none" d="M 1.484375 -19.984375 L 10.046875 -19.984375 L 10.046875 -16.375 L 7.9375 -16.375 L 7.9375 -3.609375 L 10.046875 -3.609375 L 10.046875 0 L 1.484375 0 L 1.484375 -3.609375 L 3.5625 -3.609375 L 3.5625 -16.375 L 1.484375 -16.375 Z M 1.484375 -19.984375 "/></g></g><g style="fill:#ffffff;fill-opacity:1;"><g transform="translate(41.671757, 275.515823)"><path style="stroke:none" d="M 1.484375 -3.609375 L 3.34375 -3.609375 L 3.34375 -16.359375 L 1.484375 -16.359375 L 1.484375 -19.984375 L 9.71875 -19.984375 L 15.609375 -5.5625 L 21.078125 -19.984375 L 29.421875 -19.984375 L 29.421875 -16.359375 L 27.5625 -16.359375 L 27.5625 -3.609375 L 29.40625 -3.609375 L 29.40625 0 L 21.921875 0 L 21.921875 -3.609375 L 23.296875 -3.609375 L 23.296875 -15.109375 L 17.3125 -0.234375 L 13.609375 -0.234375 L 7.515625 -14.71875 L 7.515625 -3.609375 L 9 -3.609375 L 9 0 L 1.484375 0 Z M 1.484375 -3.609375 "/></g></g><g style="fill:#ffffff;fill-opacity:1;"><g transform="translate(74.895841, 275.515823)"><path style="stroke:none" d="M 1.484375 -19.984375 L 17.390625 -19.984375 L 17.390625 -13.171875 L 13.09375 -13.171875 L 13.09375 -16 L 7.96875 -16 L 7.96875 -12.0625 L 11.9375 -12.0625 L 11.9375 -8.234375 L 7.96875 -8.234375 L 7.96875 -3.609375 L 13.09375 -3.609375 L 13.09375 -7.15625 L 17.390625 -7.15625 L 17.390625 0 L 1.484375 0 L 1.484375 -3.609375 L 3.59375 -3.609375 L 3.59375 -16 L 1.484375 -16 Z M 1.484375 -19.984375 "/></g></g><g style="fill:#ffffff;fill-opacity:1;"><g transform="translate(95.403274, 275.515823)"><path style="stroke:none" d=""/></g></g><g style="fill:#ffffff;fill-opacity:1;"><g transform="translate(103.128173, 275.515823)"><path style="stroke:none" d="M 11.09375 -14.359375 C 11.050781 -14.660156 10.941406 -14.945312 10.765625 -15.21875 C 10.597656 -15.5 10.378906 -15.738281 10.109375 -15.9375 C 9.847656 -16.132812 9.546875 -16.289062 9.203125 -16.40625 C 8.867188 -16.519531 8.515625 -16.578125 8.140625 -16.578125 C 7.804688 -16.578125 7.492188 -16.539062 7.203125 -16.46875 C 6.921875 -16.394531 6.671875 -16.285156 6.453125 -16.140625 C 6.234375 -15.992188 6.0625 -15.804688 5.9375 -15.578125 C 5.8125 -15.347656 5.75 -15.078125 5.75 -14.765625 C 5.75 -14.367188 5.832031 -14.050781 6 -13.8125 C 6.175781 -13.582031 6.394531 -13.394531 6.65625 -13.25 C 6.925781 -13.101562 7.222656 -12.984375 7.546875 -12.890625 C 7.878906 -12.804688 8.195312 -12.710938 8.5 -12.609375 L 12.125 -11.390625 C 12.625 -11.210938 13.09375 -10.96875 13.53125 -10.65625 C 13.976562 -10.351562 14.359375 -9.984375 14.671875 -9.546875 C 14.992188 -9.109375 15.25 -8.601562 15.4375 -8.03125 C 15.625 -7.457031 15.71875 -6.816406 15.71875 -6.109375 C 15.71875 -5.140625 15.535156 -4.253906 15.171875 -3.453125 C 14.816406 -2.648438 14.316406 -1.960938 13.671875 -1.390625 C 13.035156 -0.828125 12.269531 -0.382812 11.375 -0.0625 C 10.476562 0.25 9.484375 0.40625 8.390625 0.40625 C 7.628906 0.40625 6.90625 0.316406 6.21875 0.140625 C 5.539062 -0.0234375 4.921875 -0.269531 4.359375 -0.59375 C 3.796875 -0.914062 3.300781 -1.300781 2.875 -1.75 C 2.457031 -2.207031 2.132812 -2.722656 1.90625 -3.296875 L 0.546875 -3.296875 L 0.546875 -7.265625 L 5.3125 -7.265625 L 5.3125 -6.453125 C 5.3125 -6.054688 5.375 -5.691406 5.5 -5.359375 C 5.632812 -5.023438 5.828125 -4.734375 6.078125 -4.484375 C 6.328125 -4.234375 6.644531 -4.039062 7.03125 -3.90625 C 7.425781 -3.769531 7.878906 -3.703125 8.390625 -3.703125 C 9.179688 -3.703125 9.785156 -3.882812 10.203125 -4.25 C 10.617188 -4.613281 10.828125 -5.125 10.828125 -5.78125 C 10.828125 -6.113281 10.753906 -6.390625 10.609375 -6.609375 C 10.460938 -6.835938 10.273438 -7.023438 10.046875 -7.171875 C 9.816406 -7.328125 9.5625 -7.457031 9.28125 -7.5625 C 9 -7.664062 8.722656 -7.765625 8.453125 -7.859375 L 5.4375 -8.828125 C 4.863281 -9.003906 4.3125 -9.25 3.78125 -9.5625 C 3.25 -9.882812 2.773438 -10.28125 2.359375 -10.75 C 1.953125 -11.226562 1.628906 -11.785156 1.390625 -12.421875 C 1.148438 -13.054688 1.03125 -13.785156 1.03125 -14.609375 C 1.03125 -15.554688 1.203125 -16.398438 1.546875 -17.140625 C 1.898438 -17.890625 2.394531 -18.515625 3.03125 -19.015625 C 3.664062 -19.523438 4.414062 -19.910156 5.28125 -20.171875 C 6.15625 -20.441406 7.109375 -20.578125 8.140625 -20.578125 C 8.960938 -20.578125 9.71875 -20.484375 10.40625 -20.296875 C 11.101562 -20.109375 11.726562 -19.851562 12.28125 -19.53125 C 12.832031 -19.21875 13.296875 -18.859375 13.671875 -18.453125 C 14.054688 -18.046875 14.351562 -17.617188 14.5625 -17.171875 L 15.875 -17.171875 L 15.875 -13.203125 L 11.09375 -13.203125 Z M 11.09375 -14.359375 "/></g></g><g style="fill:#ffffff;fill-opacity:1;"><g transform="translate(121.8566, 275.515823)"><path style="stroke:none" d="M 1.484375 -19.984375 L 17.390625 -19.984375 L 17.390625 -13.171875 L 13.09375 -13.171875 L 13.09375 -16 L 7.96875 -16 L 7.96875 -12.0625 L 11.9375 -12.0625 L 11.9375 -8.234375 L 7.96875 -8.234375 L 7.96875 -3.609375 L 13.09375 -3.609375 L 13.09375 -7.15625 L 17.390625 -7.15625 L 17.390625 0 L 1.484375 0 L 1.484375 -3.609375 L 3.59375 -3.609375 L 3.59375 -16 L 1.484375 -16 Z M 1.484375 -19.984375 "/></g></g><g style="fill:#ffffff;fill-opacity:1;"><g transform="translate(142.364033, 275.515823)"><path style="stroke:none" d="M 1.484375 -19.984375 L 12.0625 -19.984375 C 13.09375 -19.984375 14.007812 -19.828125 14.8125 -19.515625 C 15.625 -19.210938 16.304688 -18.800781 16.859375 -18.28125 C 17.410156 -17.769531 17.832031 -17.175781 18.125 -16.5 C 18.425781 -15.820312 18.578125 -15.113281 18.578125 -14.375 C 18.578125 -13.695312 18.503906 -13.101562 18.359375 -12.59375 C 18.210938 -12.082031 18 -11.628906 17.71875 -11.234375 C 17.445312 -10.835938 17.109375 -10.488281 16.703125 -10.1875 C 16.296875 -9.882812 15.832031 -9.609375 15.3125 -9.359375 C 15.757812 -9.128906 16.15625 -8.78125 16.5 -8.3125 C 16.84375 -7.84375 17.101562 -7.234375 17.28125 -6.484375 L 17.953125 -3.890625 L 19.609375 -3.890625 L 19.625 0 L 13.828125 0 L 13.03125 -4.75 C 12.957031 -5.3125 12.835938 -5.796875 12.671875 -6.203125 C 12.515625 -6.609375 12.296875 -6.941406 12.015625 -7.203125 C 11.742188 -7.460938 11.410156 -7.65625 11.015625 -7.78125 C 10.628906 -7.90625 10.171875 -7.96875 9.640625 -7.96875 L 7.9375 -7.96875 L 7.9375 -3.609375 L 9.765625 -3.609375 L 9.765625 0 L 1.484375 0 L 1.484375 -3.609375 L 3.5625 -3.609375 L 3.5625 -16.359375 L 1.484375 -16.359375 Z M 7.9375 -16.359375 L 7.9375 -11.515625 L 10.5625 -11.515625 C 11.0625 -11.515625 11.507812 -11.5625 11.90625 -11.65625 C 12.3125 -11.75 12.65625 -11.894531 12.9375 -12.09375 C 13.226562 -12.289062 13.445312 -12.539062 13.59375 -12.84375 C 13.75 -13.144531 13.828125 -13.5 13.828125 -13.90625 C 13.828125 -14.675781 13.550781 -15.273438 13 -15.703125 C 12.445312 -16.140625 11.632812 -16.359375 10.5625 -16.359375 Z M 7.9375 -16.359375 "/></g></g><g style="fill:#ffffff;fill-opacity:1;"><g transform="translate(164.848147, 275.515823)"><path style="stroke:none" d="M 1.484375 -19.984375 L 10.046875 -19.984375 L 10.046875 -16.375 L 7.9375 -16.375 L 7.9375 -3.609375 L 10.046875 -3.609375 L 10.046875 0 L 1.484375 0 L 1.484375 -3.609375 L 3.5625 -3.609375 L 3.5625 -16.375 L 1.484375 -16.375 Z M 1.484375 -19.984375 "/></g></g><g style="fill:#ffffff;fill-opacity:1;"><g transform="translate(177.844194, 275.515823)"><path style="stroke:none" d="M 1.484375 -19.984375 L 17.390625 -19.984375 L 17.390625 -13.171875 L 13.09375 -13.171875 L 13.09375 -16 L 7.96875 -16 L 7.96875 -12.0625 L 11.9375 -12.0625 L 11.9375 -8.234375 L 7.96875 -8.234375 L 7.96875 -3.609375 L 13.09375 -3.609375 L 13.09375 -7.15625 L 17.390625 -7.15625 L 17.390625 0 L 1.484375 0 L 1.484375 -3.609375 L 3.59375 -3.609375 L 3.59375 -16 L 1.484375 -16 Z M 1.484375 -19.984375 "/></g></g><g style="fill:#ffffff;fill-opacity:1;"><g transform="translate(198.351627, 275.515823)"><path style="stroke:none" d="M 11.09375 -14.359375 C 11.050781 -14.660156 10.941406 -14.945312 10.765625 -15.21875 C 10.597656 -15.5 10.378906 -15.738281 10.109375 -15.9375 C 9.847656 -16.132812 9.546875 -16.289062 9.203125 -16.40625 C 8.867188 -16.519531 8.515625 -16.578125 8.140625 -16.578125 C 7.804688 -16.578125 7.492188 -16.539062 7.203125 -16.46875 C 6.921875 -16.394531 6.671875 -16.285156 6.453125 -16.140625 C 6.234375 -15.992188 6.0625 -15.804688 5.9375 -15.578125 C 5.8125 -15.347656 5.75 -15.078125 5.75 -14.765625 C 5.75 -14.367188 5.832031 -14.050781 6 -13.8125 C 6.175781 -13.582031 6.394531 -13.394531 6.65625 -13.25 C 6.925781 -13.101562 7.222656 -12.984375 7.546875 -12.890625 C 7.878906 -12.804688 8.195312 -12.710938 8.5 -12.609375 L 12.125 -11.390625 C 12.625 -11.210938 13.09375 -10.96875 13.53125 -10.65625 C 13.976562 -10.351562 14.359375 -9.984375 14.671875 -9.546875 C 14.992188 -9.109375 15.25 -8.601562 15.4375 -8.03125 C 15.625 -7.457031 15.71875 -6.816406 15.71875 -6.109375 C 15.71875 -5.140625 15.535156 -4.253906 15.171875 -3.453125 C 14.816406 -2.648438 14.316406 -1.960938 13.671875 -1.390625 C 13.035156 -0.828125 12.269531 -0.382812 11.375 -0.0625 C 10.476562 0.25 9.484375 0.40625 8.390625 0.40625 C 7.628906 0.40625 6.90625 0.316406 6.21875 0.140625 C 5.539062 -0.0234375 4.921875 -0.269531 4.359375 -0.59375 C 3.796875 -0.914062 3.300781 -1.300781 2.875 -1.75 C 2.457031 -2.207031 2.132812 -2.722656 1.90625 -3.296875 L 0.546875 -3.296875 L 0.546875 -7.265625 L 5.3125 -7.265625 L 5.3125 -6.453125 C 5.3125 -6.054688 5.375 -5.691406 5.5 -5.359375 C 5.632812 -5.023438 5.828125 -4.734375 6.078125 -4.484375 C 6.328125 -4.234375 6.644531 -4.039062 7.03125 -3.90625 C 7.425781 -3.769531 7.878906 -3.703125 8.390625 -3.703125 C 9.179688 -3.703125 9.785156 -3.882812 10.203125 -4.25 C 10.617188 -4.613281 10.828125 -5.125 10.828125 -5.78125 C 10.828125 -6.113281 10.753906 -6.390625 10.609375 -6.609375 C 10.460938 -6.835938 10.273438 -7.023438 10.046875 -7.171875 C 9.816406 -7.328125 9.5625 -7.457031 9.28125 -7.5625 C 9 -7.664062 8.722656 -7.765625 8.453125 -7.859375 L 5.4375 -8.828125 C 4.863281 -9.003906 4.3125 -9.25 3.78125 -9.5625 C 3.25 -9.882812 2.773438 -10.28125 2.359375 -10.75 C 1.953125 -11.226562 1.628906 -11.785156 1.390625 -12.421875 C 1.148438 -13.054688 1.03125 -13.785156 1.03125 -14.609375 C 1.03125 -15.554688 1.203125 -16.398438 1.546875 -17.140625 C 1.898438 -17.890625 2.394531 -18.515625 3.03125 -19.015625 C 3.664062 -19.523438 4.414062 -19.910156 5.28125 -20.171875 C 6.15625 -20.441406 7.109375 -20.578125 8.140625 -20.578125 C 8.960938 -20.578125 9.71875 -20.484375 10.40625 -20.296875 C 11.101562 -20.109375 11.726562 -19.851562 12.28125 -19.53125 C 12.832031 -19.21875 13.296875 -18.859375 13.671875 -18.453125 C 14.054688 -18.046875 14.351562 -17.617188 14.5625 -17.171875 L 15.875 -17.171875 L 15.875 -13.203125 L 11.09375 -13.203125 Z M 11.09375 -14.359375 "/></g></g><g style="fill:#ffffff;fill-opacity:1;"><g transform="translate(217.080054, 275.515823)"><path style="stroke:none" d=""/></g></g><g style="fill:#ffffff;fill-opacity:1;"><g transform="translate(224.804953, 275.515823)"><path style="stroke:none" d="M 10.53125 0.359375 C 9.625 0.359375 8.757812 0.238281 7.9375 0 C 7.113281 -0.25 6.34375 -0.597656 5.625 -1.046875 C 4.90625 -1.503906 4.253906 -2.046875 3.671875 -2.671875 C 3.085938 -3.296875 2.585938 -3.992188 2.171875 -4.765625 C 1.765625 -5.535156 1.445312 -6.359375 1.21875 -7.234375 C 0.988281 -8.117188 0.875 -9.039062 0.875 -10 C 0.875 -10.957031 0.988281 -11.875 1.21875 -12.75 C 1.445312 -13.632812 1.765625 -14.460938 2.171875 -15.234375 C 2.585938 -16.003906 3.085938 -16.703125 3.671875 -17.328125 C 4.253906 -17.953125 4.90625 -18.488281 5.625 -18.9375 C 6.34375 -19.394531 7.113281 -19.742188 7.9375 -19.984375 C 8.757812 -20.234375 9.625 -20.359375 10.53125 -20.359375 C 11.4375 -20.359375 12.304688 -20.234375 13.140625 -19.984375 C 13.972656 -19.742188 14.742188 -19.394531 15.453125 -18.9375 C 16.171875 -18.488281 16.820312 -17.953125 17.40625 -17.328125 C 17.988281 -16.703125 18.488281 -16.003906 18.90625 -15.234375 C 19.320312 -14.460938 19.644531 -13.632812 19.875 -12.75 C 20.101562 -11.875 20.21875 -10.957031 20.21875 -10 C 20.21875 -9.039062 20.101562 -8.117188 19.875 -7.234375 C 19.644531 -6.359375 19.320312 -5.535156 18.90625 -4.765625 C 18.488281 -3.992188 17.988281 -3.296875 17.40625 -2.671875 C 16.820312 -2.046875 16.171875 -1.503906 15.453125 -1.046875 C 14.742188 -0.597656 13.972656 -0.25 13.140625 0 C 12.304688 0.238281 11.4375 0.359375 10.53125 0.359375 Z M 10.53125 -3.78125 C 11.300781 -3.78125 12.003906 -3.941406 12.640625 -4.265625 C 13.273438 -4.597656 13.820312 -5.046875 14.28125 -5.609375 C 14.738281 -6.179688 15.09375 -6.84375 15.34375 -7.59375 C 15.59375 -8.351562 15.71875 -9.15625 15.71875 -10 C 15.71875 -10.84375 15.585938 -11.644531 15.328125 -12.40625 C 15.078125 -13.164062 14.71875 -13.828125 14.25 -14.390625 C 13.789062 -14.953125 13.242188 -15.398438 12.609375 -15.734375 C 11.984375 -16.066406 11.289062 -16.234375 10.53125 -16.234375 C 9.78125 -16.234375 9.085938 -16.066406 8.453125 -15.734375 C 7.816406 -15.398438 7.269531 -14.953125 6.8125 -14.390625 C 6.351562 -13.828125 5.992188 -13.164062 5.734375 -12.40625 C 5.484375 -11.644531 5.359375 -10.84375 5.359375 -10 C 5.359375 -9.15625 5.484375 -8.351562 5.734375 -7.59375 C 5.992188 -6.84375 6.351562 -6.179688 6.8125 -5.609375 C 7.269531 -5.046875 7.816406 -4.597656 8.453125 -4.265625 C 9.085938 -3.941406 9.78125 -3.78125 10.53125 -3.78125 Z M 10.53125 -3.78125 "/></g></g><g style="fill:#ffffff;fill-opacity:1;"><g transform="translate(248.475064, 275.515823)"><path style="stroke:none" d="M 1.484375 -19.984375 L 16.953125 -19.984375 L 16.953125 -13.171875 L 12.671875 -13.171875 L 12.671875 -15.984375 L 7.9375 -15.984375 L 7.9375 -11.765625 L 12.03125 -11.765625 L 12.03125 -7.9375 L 7.9375 -7.9375 L 7.9375 -3.609375 L 10.046875 -3.609375 L 10.046875 0 L 1.484375 0 L 1.484375 -3.609375 L 3.5625 -3.609375 L 3.5625 -15.984375 L 1.484375 -15.984375 Z M 1.484375 -19.984375 "/></g></g><g style="fill:#ffffff;fill-opacity:1;"><g transform="translate(267.7438, 275.515823)"><path style="stroke:none" d=""/></g></g><g style="fill:#ffffff;fill-opacity:1;"><g transform="translate(275.468699, 275.515823)"><path style="stroke:none" d="M 1.484375 -19.984375 L 10.046875 -19.984375 L 10.046875 -16.375 L 7.9375 -16.375 L 7.9375 -3.609375 L 10.046875 -3.609375 L 10.046875 0 L 1.484375 0 L 1.484375 -3.609375 L 3.5625 -3.609375 L 3.5625 -16.375 L 1.484375 -16.375 Z M 1.484375 -19.984375 "/></g></g><g style="fill:#ffffff;fill-opacity:1;"><g transform="translate(288.464746, 275.515823)"><path style="stroke:none" d="M 14.125 -19.984375 L 21.71875 -19.984375 L 21.71875 -16.359375 L 20.09375 -16.359375 L 20.09375 0 L 15.71875 0 L 7.390625 -12.921875 L 7.390625 -3.609375 L 9.078125 -3.609375 L 9.078125 0 L 1.484375 0 L 1.484375 -3.609375 L 3.140625 -3.609375 L 3.140625 -16.359375 L 1.515625 -16.359375 L 1.515625 -19.984375 L 7.546875 -19.984375 L 15.828125 -6.890625 L 15.828125 -16.359375 L 14.125 -16.359375 Z M 14.125 -19.984375 "/></g></g><g style="fill:#ffffff;fill-opacity:1;"><g transform="translate(313.162742, 275.515823)"><path style="stroke:none" d="M 1.078125 -19.984375 L 8.75 -19.984375 C 9.664062 -19.984375 10.539062 -19.863281 11.375 -19.625 C 12.21875 -19.394531 13 -19.0625 13.71875 -18.625 C 14.445312 -18.195312 15.109375 -17.679688 15.703125 -17.078125 C 16.296875 -16.472656 16.800781 -15.800781 17.21875 -15.0625 C 17.644531 -14.332031 17.972656 -13.539062 18.203125 -12.6875 C 18.429688 -11.832031 18.546875 -10.941406 18.546875 -10.015625 C 18.546875 -9.097656 18.429688 -8.210938 18.203125 -7.359375 C 17.972656 -6.503906 17.644531 -5.703125 17.21875 -4.953125 C 16.800781 -4.210938 16.296875 -3.535156 15.703125 -2.921875 C 15.109375 -2.316406 14.445312 -1.796875 13.71875 -1.359375 C 13 -0.929688 12.21875 -0.597656 11.375 -0.359375 C 10.539062 -0.117188 9.664062 0 8.75 0 L 1.078125 0 L 1.078125 -3.609375 L 2.671875 -3.609375 L 2.671875 -16.359375 L 1.078125 -16.359375 Z M 7.046875 -16.359375 L 7.046875 -3.609375 L 8.734375 -3.609375 C 9.441406 -3.609375 10.109375 -3.773438 10.734375 -4.109375 C 11.367188 -4.441406 11.921875 -4.894531 12.390625 -5.46875 C 12.859375 -6.050781 13.226562 -6.726562 13.5 -7.5 C 13.769531 -8.28125 13.90625 -9.117188 13.90625 -10.015625 C 13.90625 -10.898438 13.769531 -11.726562 13.5 -12.5 C 13.226562 -13.28125 12.859375 -13.957031 12.390625 -14.53125 C 11.921875 -15.101562 11.367188 -15.550781 10.734375 -15.875 C 10.109375 -16.195312 9.441406 -16.359375 8.734375 -16.359375 Z M 7.046875 -16.359375 "/></g></g><g style="fill:#ffffff;fill-opacity:1;"><g transform="translate(334.829817, 275.515823)"><path style="stroke:none" d="M 1.484375 -19.984375 L 10.046875 -19.984375 L 10.046875 -16.375 L 7.9375 -16.375 L 7.9375 -3.609375 L 10.046875 -3.609375 L 10.046875 0 L 1.484375 0 L 1.484375 -3.609375 L 3.5625 -3.609375 L 3.5625 -16.375 L 1.484375 -16.375 Z M 1.484375 -19.984375 "/></g></g><g style="fill:#ffffff;fill-opacity:1;"><g transform="translate(347.825864, 275.515823)"><path style="stroke:none" d="M 11.765625 -3.609375 L 13.765625 -3.609375 L 12.875 -6.484375 L 6.71875 -6.484375 L 5.828125 -3.609375 L 7.9375 -3.609375 L 7.9375 0 L 0.359375 0 L 0.359375 -3.609375 L 1.84375 -3.609375 L 7.296875 -19.984375 L 12.578125 -19.984375 L 17.90625 -3.609375 L 19.359375 -3.609375 L 19.359375 0 L 11.765625 0 Z M 7.765625 -9.859375 L 11.796875 -9.859375 L 9.765625 -16.359375 Z M 7.765625 -9.859375 "/></g></g></g></svg>